<svg id="visual" viewBox="0 0 960 540" width="960" height="540" xmlns="http://www.w3.org/2000/svg" xmlns:xlink="http://www.w3.org/1999/xlink" version="1.1"><path d="M0 279L16 279.8C32 280.7 64 282.3 96 309.5C128 336.7 160 389.3 192 400.8C224 412.3 256 382.7 288 379.5C320 376.3 352 399.7 384 400.8C416 402 448 381 480 363.7C512 346.3 544 332.7 576 345C608 357.3 640 395.7 672 401.7C704 407.7 736 381.3 768 366.2C800 351 832 347 864 348C896 349 928 355 944 358L960 361L960 541L944 541C928 541 896 541 864 541C832 541 800 541 768 541C736 541 704 541 672 541C640 541 608 541 576 541C544 541 512 541 480 541C448 541 416 541 384 541C352 541 320 541 288 541C256 541 224 541 192 541C160 541 128 541 96 541C64 541 32 541 16 541L0 541Z" fill="#3742ad"></path><path d="M0 372L16 383.2C32 394.3 64 416.7 96 414.7C128 412.7 160 386.3 192 374C224 361.7 256 363.3 288 376.3C320 389.3 352 413.7 384 417.3C416 421 448 404 480 403.3C512 402.7 544 418.3 576 425.2C608 432 640 430 672 422.3C704 414.7 736 401.3 768 388C800 374.7 832 361.3 864 366.2C896 371 928 394 944 405.5L960 417L960 541L944 541C928 541 896 541 864 541C832 541 800 541 768 541C736 541 704 541 672 541C640 541 608 541 576 541C544 541 512 541 480 541C448 541 416 541 384 541C352 541 320 541 288 541C256 541 224 541 192 541C160 541 128 541 96 541C64 541 32 541 16 541L0 541Z" fill="#2e2571"></path><path d="M0 462L16 467.5C32 473 64 484 96 489.8C128 495.7 160 496.3 192 487.8C224 479.3 256 461.7 288 465.3C320 469 352 494 384 501C416 508 448 497 480 492.5C512 488 544 490 576 487.3C608 484.7 640 477.3 672 465C704 452.7 736 435.3 768 438.3C800 441.3 832 464.7 864 480C896 495.3 928 502.7 944 506.3L960 510L960 541L944 541C928 541 896 541 864 541C832 541 800 541 768 541C736 541 704 541 672 541C640 541 608 541 576 541C544 541 512 541 480 541C448 541 416 541 384 541C352 541 320 541 288 541C256 541 224 541 192 541C160 541 128 541 96 541C64 541 32 541 16 541L0 541Z" fill="#1b0d3b"></path></svg>