<svg id="visual" viewBox="0 0 960 540" width="960" height="540" xmlns="http://www.w3.org/2000/svg" xmlns:xlink="http://www.w3.org/1999/xlink" version="1.1"><path d="M0 155L16 152C32 149 64 143 96 141.5C128 140 160 143 192 145.2C224 147.3 256 148.7 288 147.2C320 145.7 352 141.3 384 134.3C416 127.3 448 117.7 480 108.3C512 99 544 90 576 82.7C608 75.3 640 69.7 672 73.5C704 77.3 736 90.7 768 98.5C800 106.3 832 108.7 864 107C896 105.3 928 99.7 944 96.8L960 94L960 0L944 0C928 0 896 0 864 0C832 0 800 0 768 0C736 0 704 0 672 0C640 0 608 0 576 0C544 0 512 0 480 0C448 0 416 0 384 0C352 0 320 0 288 0C256 0 224 0 192 0C160 0 128 0 96 0C64 0 32 0 16 0L0 0Z" fill="#3742ad"></path><path d="M0 47L16 50.7C32 54.3 64 61.7 96 62.5C128 63.3 160 57.7 192 54.8C224 52 256 52 288 56.8C320 61.7 352 71.3 384 72.5C416 73.7 448 66.3 480 65.8C512 65.3 544 71.7 576 67.2C608 62.7 640 47.3 672 46.8C704 46.3 736 60.7 768 66.5C800 72.3 832 69.7 864 67.5C896 65.3 928 63.7 944 62.8L960 62L960 0L944 0C928 0 896 0 864 0C832 0 800 0 768 0C736 0 704 0 672 0C640 0 608 0 576 0C544 0 512 0 480 0C448 0 416 0 384 0C352 0 320 0 288 0C256 0 224 0 192 0C160 0 128 0 96 0C64 0 32 0 16 0L0 0Z" fill="#2e2571"></path><path d="M0 55L16 53C32 51 64 47 96 44.3C128 41.7 160 40.3 192 44.8C224 49.3 256 59.7 288 56.8C320 54 352 38 384 30C416 22 448 22 480 23C512 24 544 26 576 30.2C608 34.3 640 40.7 672 45.7C704 50.7 736 54.3 768 57.7C800 61 832 64 864 65.8C896 67.7 928 68.3 944 68.7L960 69L960 0L944 0C928 0 896 0 864 0C832 0 800 0 768 0C736 0 704 0 672 0C640 0 608 0 576 0C544 0 512 0 480 0C448 0 416 0 384 0C352 0 320 0 288 0C256 0 224 0 192 0C160 0 128 0 96 0C64 0 32 0 16 0L0 0Z" fill="#1b0d3b"></path></svg>