<svg id="visual" viewBox="0 0 960 540" width="960" height="540" xmlns="http://www.w3.org/2000/svg" xmlns:xlink="http://www.w3.org/1999/xlink" version="1.1"><path d="M0 381L16 392.3C32 403.7 64 426.3 96 431.2C128 436 160 423 192 420.7C224 418.3 256 426.7 288 424.7C320 422.7 352 410.3 384 409.3C416 408.3 448 418.7 480 426.8C512 435 544 441 576 426.5C608 412 640 377 672 376.3C704 375.7 736 409.3 768 417C800 424.7 832 406.3 864 388.8C896 371.3 928 354.7 944 346.3L960 338L960 541L944 541C928 541 896 541 864 541C832 541 800 541 768 541C736 541 704 541 672 541C640 541 608 541 576 541C544 541 512 541 480 541C448 541 416 541 384 541C352 541 320 541 288 541C256 541 224 541 192 541C160 541 128 541 96 541C64 541 32 541 16 541L0 541Z" fill="#3742ad"></path><path d="M0 472L16 473.8C32 475.7 64 479.3 96 464.8C128 450.3 160 417.7 192 402C224 386.3 256 387.7 288 399.7C320 411.7 352 434.3 384 441.3C416 448.3 448 439.7 480 443.5C512 447.3 544 463.7 576 460C608 456.3 640 432.7 672 421.8C704 411 736 413 768 420C800 427 832 439 864 450.3C896 461.7 928 472.3 944 477.7L960 483L960 541L944 541C928 541 896 541 864 541C832 541 800 541 768 541C736 541 704 541 672 541C640 541 608 541 576 541C544 541 512 541 480 541C448 541 416 541 384 541C352 541 320 541 288 541C256 541 224 541 192 541C160 541 128 541 96 541C64 541 32 541 16 541L0 541Z" fill="#2e2571"></path><path d="M0 500L16 492.3C32 484.7 64 469.3 96 463.7C128 458 160 462 192 472.8C224 483.7 256 501.3 288 507.8C320 514.3 352 509.7 384 497.8C416 486 448 467 480 461.2C512 455.3 544 462.7 576 461.5C608 460.3 640 450.7 672 453.5C704 456.3 736 471.7 768 483.3C800 495 832 503 864 496C896 489 928 467 944 456L960 445L960 541L944 541C928 541 896 541 864 541C832 541 800 541 768 541C736 541 704 541 672 541C640 541 608 541 576 541C544 541 512 541 480 541C448 541 416 541 384 541C352 541 320 541 288 541C256 541 224 541 192 541C160 541 128 541 96 541C64 541 32 541 16 541L0 541Z" fill="#1b0d3b"></path></svg>